<?xml version="1.0" encoding="UTF-8" standalone="no"?>
<svg
   xmlns:dc="http://purl.org/dc/elements/1.1/"
   xmlns:cc="http://creativecommons.org/ns#"
   xmlns:rdf="http://www.w3.org/1999/02/22-rdf-syntax-ns#"
   xmlns:svg="http://www.w3.org/2000/svg"
   xmlns="http://www.w3.org/2000/svg"
   xmlns:sodipodi="http://sodipodi.sourceforge.net/DTD/sodipodi-0.dtd"
   xmlns:inkscape="http://www.inkscape.org/namespaces/inkscape"
   version="1.1"
   id="svg24"
   width="356.79999"
   height="314.28571"
   viewBox="0 0 356.79999 314.28571"
   sodipodi:docname="hexabear.svg"
   inkscape:version="1.0.2-2 (e86c870879, 2021-01-15)">
  <metadata
     id="metadata30">
    <rdf:RDF>
      <cc:Work
         rdf:about="">
        <dc:format>image/svg+xml</dc:format>
        <dc:type
           rdf:resource="http://purl.org/dc/dcmitype/StillImage" />
        <dc:title />
      </cc:Work>
    </rdf:RDF>
  </metadata>
  <defs
     id="defs28" />
  <sodipodi:namedview
     pagecolor="#ffffff"
     bordercolor="#666666"
     borderopacity="1"
     objecttolerance="10"
     gridtolerance="10"
     guidetolerance="10"
     inkscape:pageopacity="0"
     inkscape:pageshadow="2"
     inkscape:window-width="1920"
     inkscape:window-height="1013"
     id="namedview26"
     showgrid="false"
     inkscape:zoom="3.1351187"
     inkscape:cx="178.07386"
     inkscape:cy="157.53278"
     inkscape:window-x="-9"
     inkscape:window-y="-9"
     inkscape:window-maximized="1"
     inkscape:current-layer="g32"
     inkscape:document-rotation="0" />
  <g
     inkscape:groupmode="layer"
     inkscape:label="Image"
     id="g32">
    <path
       style="fill:#000000;stroke-width:0.188064"
       d="m 105.13195,286.63975 c -0.3129,-0.091 -0.82875,-0.44308 -1.14634,-0.78231 -0.56481,-0.60331 -72.035773,-124.18355 -72.597773,-125.52861 -0.181917,-0.43539 -0.240466,-0.91873 -0.161973,-1.33714 0.06788,-0.36168 13.304887,-23.47519 29.543376,-51.58642 16.181251,-28.012134 29.508631,-51.166942 29.616421,-51.455134 0.43889,-1.173453 13.598059,-24.079542 13.971349,-24.319835 0.33115,-0.213168 2.89948,-0.273428 14.32028,-0.335992 l 13.91674,-0.07624 0.35827,0.39704 c 0.26982,0.299034 0.58092,0.397041 1.26032,0.397041 h 0.90206 l 0.82992,-1.282932 c 1.40662,-2.174405 -0.0914,-1.990026 17.24247,-2.122179 8.22311,-0.0627 26.0798,-0.144979 39.68155,-0.182859 22.86,-0.06367 24.7747,-0.04503 25.31556,0.246373 0.66697,0.359344 1.36716,1.155158 2.1541,2.448292 l 0.54364,0.893305 h 1.0451 c 0.67722,0 1.2213,-0.115445 1.54565,-0.327969 0.46207,-0.302762 1.5646,-0.333277 14.3455,-0.397048 l 13.84493,-0.06908 0.49032,0.444064 c 0.26968,0.244235 3.56472,5.691056 7.3223,12.104048 5.09938,8.702995 6.82071,11.791138 6.78758,12.177158 -0.0244,0.284448 -0.0661,0.707591 -0.0925,0.940322 -0.0314,0.276706 10.05071,17.904132 29.13331,50.936085 16.17119,27.9923 29.23635,50.80591 29.30468,51.17008 0.0791,0.42151 0.0204,0.90326 -0.16349,1.34349 -0.5609,1.34239 -72.02846,124.9182 -72.59219,125.52039 -0.31564,0.33718 -0.87384,0.69636 -1.24045,0.79822 -0.90709,0.25198 -36.34854,0.25138 -37.25576,0 -0.3679,-0.10222 -0.89005,-0.4191 -1.16034,-0.70421 -0.27028,-0.2851 -7.7872,-13.15265 -16.70426,-28.59453 -8.91707,-15.4419 -16.28484,-28.0516 -16.37284,-28.02157 -0.088,0.03 -7.44297,12.66297 -16.34437,28.07321 -8.9014,15.41025 -16.40912,28.25321 -16.68382,28.53993 -0.2747,0.28675 -0.80046,0.60495 -1.16837,0.70717 -0.84426,0.23453 -38.98322,0.22349 -39.79098,-0.0114 z m 54.15593,-35.10962 c 9.29756,-16.11005 17.11216,-29.57325 17.36578,-29.91822 0.99492,-1.35327 2.5955,-1.73294 3.99344,-0.94724 0.86933,0.48859 -1.11329,-2.84889 18.8978,31.81204 l 16.36159,28.3397 16.08998,0.002 16.08999,0.002 35.03157,-60.6439 c 19.26737,-33.35415 35.00362,-60.75955 34.96945,-60.90091 -0.0857,-0.35461 -55.32851,-96.025421 -55.45399,-96.036551 -0.0555,-0.0049 -0.40174,0.519976 -0.76934,1.166446 -8.56846,15.069145 -9.10913,15.983645 -9.59992,16.237445 -0.28205,0.145856 -1.01853,0.265192 -1.63663,0.265192 h -1.12381 l 4.53009,7.757649 c 2.49154,4.266707 4.69508,8.129735 4.89676,8.584504 0.26308,0.593305 0.34375,1.103044 0.28557,1.804675 -0.0735,0.885454 -1.01765,2.61344 -9.99567,18.29281 l -9.91457,17.315 2.37316,4.09235 c 1.97853,3.41182 2.34318,4.15814 2.19293,4.48796 -0.0992,0.21759 -1.29075,2.31841 -2.64801,4.6685 -1.35728,2.3501 -3.57935,6.19821 -4.93796,8.55136 -1.35862,2.35315 -3.08188,5.33632 -3.82946,6.62927 -0.74757,1.29294 -3.75476,6.49761 -6.68264,11.56594 -2.92787,5.06833 -6.3504,10.99236 -7.6056,13.1645 -1.25521,2.17214 -3.49132,6.04391 -4.96912,8.60394 l -2.68691,4.65442 -33.59933,-0.002 -33.59934,-0.002 -2.19082,-3.80677 c -3.77787,-6.5644 -6.6666,-11.56758 -17.1826,-29.75964 -3.75881,-6.50251 -5.27384,-9.12804 -10.14663,-17.584 -1.2219,-2.12043 -2.63333,-4.55683 -3.13648,-5.41423 l -0.91483,-1.55892 2.19784,-3.80091 c 1.20882,-2.0905 2.56813,-4.44938 3.0207,-5.24193 l 0.82283,-1.441 -9.26156,-15.86091 c -9.071999,-15.53607 -9.263159,-15.88409 -9.339649,-17.002346 -0.0961,-1.404585 -0.32817,-0.934578 5.379969,-10.894486 l 4.31126,-7.522569 -0.96256,-0.09984 c -0.52941,-0.05491 -1.13233,-0.194934 -1.33981,-0.311162 -0.20748,-0.11623 -2.74066,-4.239277 -5.629289,-9.162328 -2.88863,-4.923051 -5.30005,-8.950792 -5.35872,-8.950539 -0.12588,5.65e-4 -55.744802,96.23483 -55.835637,96.60924 -0.03406,0.14048 15.70229,27.54553 34.969717,60.9001 l 35.031689,60.6447 h 17.31706 17.31707 z m 42.49795,-89.56614 12.99227,-5.6e-4 17.77207,-31.05055 c 9.77464,-17.07779 17.90904,-31.31635 18.07646,-31.641247 l 0.30438,-0.59071 -18.26674,-31.312695 -18.26672,-31.312694 -1.7844,-0.06248 c -0.98141,-0.03437 -17.3748,-0.0028 -36.42973,0.07018 l -34.64535,0.132668 -18.06159,31.56958 -18.0616,31.569583 18.29119,31.426175 18.29117,31.4262 23.39816,-0.11145 c 12.86899,-0.0613 29.24468,-0.1117 36.39043,-0.112 z m -24.9967,-33.02962 c -3.68614,-0.56902 -6.96742,-2.92152 -8.5488,-6.12901 -1.78223,-3.61487 -1.70061,-7.3789 0.2356,-10.86591 0.77048,-1.38759 2.96438,-3.52376 4.39884,-4.28308 2.25942,-1.19601 5.36864,-1.65552 7.80743,-1.15384 0.54813,0.11275 1.71595,0.54789 2.59514,0.96696 3.82988,1.82552 6.39419,5.88455 6.39419,10.12132 0,4.95141 -3.09099,9.22792 -7.81631,10.81415 -1.41254,0.47417 -3.8046,0.72415 -5.06609,0.52941 z m -31.68098,-24.04284 c -4.05767,-0.76349 -7.58404,-3.88714 -8.96915,-7.944855 -0.67125,-1.966444 -0.70264,-4.917152 -0.0736,-6.916707 1.47913,-4.701664 5.66758,-8.011367 10.51257,-8.307017 5.63289,-0.343729 10.65195,3.354295 12.06821,8.891799 0.50878,1.989308 0.47688,3.613943 -0.11088,5.647315 -1.17307,4.058265 -3.96791,7.088635 -7.59418,8.234175 -1.86134,0.588 -4.02835,0.73485 -5.83299,0.39529 z m 62.81344,0 c -4.07535,-0.76682 -7.32433,-3.70729 -8.90574,-8.060128 -1.07313,-2.953758 -0.69441,-6.470659 1.00854,-9.365644 3.86699,-6.573873 12.93865,-7.731949 18.33054,-2.340059 4.52426,4.524278 4.5994,11.767699 0.16991,16.382051 -2.67791,2.78967 -6.78869,4.10152 -10.60325,3.38378 z M 111.85247,72.666942 c 1.44532,-2.516063 2.58252,-4.619994 2.52711,-4.675401 -0.0554,-0.05541 -0.65384,-0.145139 -1.32985,-0.199403 l -1.22911,-0.09866 -3.40476,-6.098002 c -2.07227,-3.711484 -3.36098,-6.212117 -3.29287,-6.38959 0.0615,-0.160374 1.68127,-2.905704 3.59941,-6.100735 l 3.4875,-5.809144 5.5845,0.0012 c 3.07147,6.21e-4 6.28664,0.05578 7.14482,0.122586 l 1.56034,0.121458 0.48652,0.830184 c 0.26759,0.4566 0.5501,0.76111 0.62782,0.676687 0.2974,-0.323089 4.50994,-7.819678 4.5092,-8.024537 -3.8e-4,-0.118646 -0.27761,-0.675936 -0.61595,-1.238419 l -0.61517,-1.022698 -12.21943,0.04925 c -6.7207,0.02706 -12.28463,0.11239 -12.3643,0.189593 -0.24383,0.23628 -12.027899,20.975522 -12.038269,21.186622 -0.008,0.158606 5.56131,9.752928 11.345029,19.544987 l 0.95613,1.618755 1.32674,-0.05501 1.32673,-0.05501 2.62786,-4.574659 z m 138.8102,3.96345 c 0.24157,-0.387882 3.00097,-5.208951 6.13203,-10.713483 l 5.69282,-10.008241 -6.20853,-10.584792 -6.20853,-10.584792 -1.23758,0.0058 c -0.68065,0.0032 -6.20952,0.02496 -12.28634,0.04827 l -11.04878,0.0424 -0.71488,1.312664 -0.71487,1.312663 2.65836,4.563087 c 1.46211,2.509696 2.71664,4.624264 2.7879,4.699039 0.0713,0.07477 0.59304,-0.629676 1.15956,-1.565444 l 1.03005,-1.701398 6.30015,0.01623 c 3.46509,0.0089 6.68098,0.06672 7.14645,0.128437 l 0.84628,0.112212 3.38516,6.092976 c 1.86183,3.351135 3.35887,6.192393 3.32672,6.313903 -0.0322,0.121512 -1.64008,2.866473 -3.57321,6.099914 l -3.51479,5.878986 -1.80873,0.05782 -1.80873,0.05781 2.37292,4.057275 c 3.31456,5.667322 2.78501,5.063841 4.4436,5.063841 h 1.40379 z"
       id="path36" />
    <path
       style="fill:#784421;stroke-width:0.386575"
       d="M 93.762003,256.18966 C 55.450222,189.73206 42.280685,166.85444 40.242468,163.21753 l -2.228411,-3.97628 7.831466,-13.61289 c 4.307306,-7.4871 16.640275,-28.8343 27.406596,-47.438238 C 84.018442,79.586187 92.9968,64.059011 93.204024,63.685288 c 0.30933,-0.55786 1.100332,0.547936 4.418776,6.177284 6.03245,10.233341 6.73025,11.241853 7.87859,11.386629 0.969,0.122164 0.88951,0.30225 -3.6342,8.233524 -2.543683,4.459745 -4.726925,8.573248 -4.85165,9.141117 -0.124724,0.56787 0.01902,1.615878 0.319393,2.328908 0.300388,0.71302 4.493227,8.06508 9.317417,16.33789 4.82419,8.2728 8.67723,15.2865 8.5623,15.58598 -0.11492,0.29948 -1.4405,2.65308 -2.94572,5.23023 -2.24799,3.84883 -2.66941,4.828 -2.35958,5.48237 0.20747,0.43815 7.76691,13.58263 16.79877,29.20993 l 16.42156,28.41329 33.77467,0.0858 33.77468,0.0858 16.62274,-28.82587 c 9.1425,-15.85422 16.67935,-29.07214 16.74855,-29.37316 0.0692,-0.30102 -0.90648,-2.3464 -2.16818,-4.54529 l -2.294,-3.99798 9.0436,-15.80972 c 4.97398,-8.69534 9.49455,-16.72669 10.04572,-17.84744 0.98113,-1.99508 0.98877,-2.07195 0.36475,-3.672465 -0.35055,-0.899103 -2.51561,-4.852972 -4.81125,-8.786375 l -4.17388,-7.151643 1.0265,-0.228243 c 0.56457,-0.125533 1.2158,-0.34524 1.44717,-0.488237 0.23138,-0.142997 2.54565,-3.954362 5.14282,-8.469701 2.59718,-4.515339 4.76963,-8.267192 4.82766,-8.337453 0.14591,-0.176646 1.78644,2.62574 21.23413,36.272537 26.39285,45.66277 33.83174,58.6758 33.83174,59.18272 0,0.6087 -16.7126,29.75078 -60.66821,105.78828 l -8.9947,15.55966 H 231.99734 216.0905 l -16.13107,-27.93007 c -19.50498,-33.77182 -18.57198,-32.25243 -19.99719,-32.56546 -2.47854,-0.54438 -2.45282,-0.58176 -17.46291,25.37558 -7.78859,13.46902 -15.52976,26.87765 -17.2026,29.79695 l -3.04153,5.30783 -17.2026,-0.006 -17.2026,-0.006 -14.087997,-24.43778 z"
       id="path50" />
    <path
       style="fill:#784421;stroke-width:0.386575"
       d="m 247.73165,77.028624 c -0.38624,-0.254587 -5.16016,-8.045059 -5.16016,-8.420783 0,-0.07676 0.73548,-0.193053 1.6344,-0.258432 l 1.6344,-0.118871 3.61015,-6.098032 3.61014,-6.098031 -3.35193,-6.07909 c -1.84356,-3.3435 -3.55126,-6.206896 -3.79488,-6.363102 -0.24363,-0.156207 -3.57422,-0.285424 -7.40132,-0.287149 l -6.95835,-0.0031 -0.98423,1.540493 -0.98423,1.540493 -2.60743,-4.43118 c -2.5403,-4.317107 -2.59265,-4.459741 -2.03356,-5.540893 l 0.57386,-1.109718 6.11039,-0.253423 c 3.36072,-0.139383 8.83252,-0.254002 12.15957,-0.254711 l 6.04916,-0.0013 5.70874,9.761025 c 3.13981,5.368565 5.93216,10.108944 6.20521,10.534177 0.4441,0.691592 -0.14376,1.894582 -5.5727,11.403971 -5.21736,9.138779 -6.20481,10.644876 -7.03561,10.730962 -0.53154,0.05508 -1.16677,-0.03189 -1.41162,-0.193287 z"
       id="path52" />
    <path
       style="fill:#784421;stroke-width:0.386575"
       d="m 106.35861,76.475578 c -0.32037,-0.49506 -3.10671,-5.233485 -6.19185,-10.529831 l -5.609352,-9.629722 0.608125,-1.194386 c 1.363404,-2.677795 10.694267,-19.008681 11.093917,-19.416578 0.29191,-0.29794 4.29493,-0.525018 12.41466,-0.704241 l 11.98384,-0.264513 0.65296,1.110613 c 0.64963,1.104934 0.64164,1.130658 -1.5636,5.031357 -2.00111,3.539627 -2.26218,3.847715 -2.68576,3.16945 -0.43784,-0.70109 -0.95892,-0.751295 -7.79769,-0.751295 h -7.3285 l -3.49234,5.861068 c -1.92078,3.223588 -3.49233,6.029323 -3.49233,6.234968 0,0.205645 1.51792,3.134848 3.37316,6.50934 3.14627,5.722753 3.44808,6.135442 4.48697,6.135442 1.36189,0 1.35417,0.02596 -1.52333,5.122122 -1.17051,2.07301 -2.36507,3.769109 -2.65458,3.769109 -0.28951,0 -0.7886,0.100622 -1.10909,0.223603 -0.35452,0.136044 -0.8108,-0.128865 -1.16521,-0.676506 z"
       id="path54" />
    <path
       style="fill:#502d16;stroke-width:0.386575"
       d="M 123.91172,130.64576 105.68115,99.316479 123.71506,67.827278 141.74897,36.338077 h 36.26824 36.26825 l 17.98056,30.829379 c 9.88932,16.956158 18.03675,31.041457 18.10542,31.300664 0.0687,0.259206 -7.96424,14.6523 -17.85091,31.98466 l -17.97575,31.51338 -36.20124,0.004 -36.20125,0.004 z m 59.40636,-2.62767 c 4.21861,-2.16996 6.40975,-5.66084 6.43031,-10.2446 0.0146,-3.25517 -0.84486,-5.50874 -3.01847,-7.91466 -2.17089,-2.40292 -4.80325,-3.55063 -8.14368,-3.55063 -3.7969,0 -5.91005,0.80878 -8.26432,3.16304 -3.28749,3.2875 -4.28853,7.47856 -2.858,11.96565 0.83786,2.62809 4.13519,6.09434 6.68568,7.0282 2.44195,0.89411 6.99256,0.67225 9.16848,-0.447 z m -30.67071,-24.04808 c 4.11624,-2.05575 6.63215,-6.581042 6.32981,-11.38523 -0.27191,-4.320636 -2.33682,-7.566581 -6.16118,-9.685102 -1.85069,-1.025194 -2.40378,-1.138727 -5.53532,-1.136234 -2.86253,0.0023 -3.76846,0.156865 -5.11137,0.872168 -2.58634,1.377623 -4.23238,3.050021 -5.50134,5.58945 -2.9314,5.866253 -0.53685,12.716968 5.51474,15.777428 2.20624,1.11576 2.63223,1.19796 5.48682,1.0588 2.28333,-0.11132 3.58862,-0.39747 4.97784,-1.09128 z m 63.0735,-0.18141 c 8.44962,-4.321415 8.11863,-16.87663 -0.55762,-21.151747 -2.5452,-1.254116 -7.58806,-1.251564 -10.13876,0.0051 -4.20646,2.072461 -6.69706,6.078819 -6.66171,10.715944 0.0251,3.297931 0.95904,5.60773 3.28956,8.136053 2.66199,2.88791 4.60071,3.66322 8.8608,3.54347 2.39297,-0.0673 3.34269,-0.29501 5.20773,-1.24885 z"
       id="path56" />
    <path
       style="fill:#502d16;stroke-width:0.386575"
       d="m 202.913,257.3668 c -15.6278,-27.05889 -19.95716,-34.41436 -21.27701,-36.14909 -0.73445,-0.96532 -1.24802,-1.25637 -2.21691,-1.25637 -1.51365,0 -2.52184,0.97603 -4.99136,4.83219 -1.59929,2.49728 -18.70935,31.93425 -28.13902,48.41172 l -4.0335,7.04816 -17.2026,-0.002 -17.2026,-0.002 -26.866978,-46.65898 c -37.151756,-64.51982 -42.523281,-73.90618 -42.523281,-74.3061 0,-0.19175 2.584521,-4.84007 5.743379,-10.32958 4.582235,-7.96308 48.34349,-83.729423 49.032561,-84.892849 0.272713,-0.460453 1.14502,0.830506 5.889551,8.716162 2.408538,4.003125 4.892478,7.666982 5.543078,8.176149 l 1.17886,0.922597 -4.36183,7.852503 c -2.436831,4.386963 -4.439763,8.455903 -4.538413,9.219738 -0.206729,1.60073 0.05721,2.13002 7.235983,14.5108 6.6627,11.49074 10.4843,18.43396 10.53874,19.14719 0.0248,0.32536 -1.1399,2.71769 -2.58831,5.31628 -1.57113,2.81877 -2.55826,5.01228 -2.44704,5.43759 0.10253,0.39208 7.63479,13.6135 16.73835,29.38093 l 16.55192,28.66806 34.03413,-0.0987 34.03414,-0.0987 7.69328,-13.33685 c 22.9184,-39.73071 25.42548,-44.23496 25.21951,-45.30978 -0.11034,-0.57579 -1.07451,-2.59713 -2.1426,-4.49185 l -1.94199,-3.44496 8.24236,-14.4583 c 11.85413,-20.793871 11.63599,-20.3702 11.32944,-22.004235 -0.14176,-0.755675 -2.16969,-4.717537 -4.50651,-8.804137 -2.33682,-4.086601 -4.24876,-7.521304 -4.24876,-7.632673 0,-0.111369 0.48197,-0.370505 1.07105,-0.575858 0.58908,-0.205353 1.29293,-0.728664 1.56413,-1.162914 0.27119,-0.434249 2.47174,-4.177032 4.89012,-8.317295 2.41838,-4.140263 4.47705,-7.391508 4.57483,-7.224989 6.94664,11.830184 45.7062,79.015751 50.94347,88.305091 2.1159,3.75296 3.43833,6.50807 3.32741,6.93222 -0.22169,0.84776 -21.49264,38.02435 -49.08522,85.7894 l -20.20994,34.98506 -15.69909,0.10094 -15.69908,0.10095 z"
       id="path58" />
    <path
       style="fill:#d38d5f;stroke-width:0.386575"
       d="m 105.02634,73.739235 c -1.05002,-1.754085 -3.77928,-6.39248 -6.065025,-10.307544 l -4.155902,-7.118298 1.475642,-2.739372 c 2.939325,-5.456545 9.931735,-17.435246 10.321595,-17.681936 0.42607,-0.2696 7.32377,-0.602302 17.59622,-0.84873 l 6.2979,-0.151081 0.53722,1.038852 c 0.50001,0.966922 0.43078,1.234993 -0.9999,3.871644 -2.03248,3.745726 -2.52186,4.419782 -2.83777,3.908629 -0.16871,-0.27297 -2.8762,-0.414967 -7.91229,-0.414967 h -7.65582 l -3.33876,5.729768 c -1.83632,3.151373 -3.33876,6.043769 -3.33876,6.427546 0,0.732977 1.97033,4.547061 4.95285,9.587545 1.13132,1.911924 2.01642,2.995959 2.44618,2.995959 0.37038,0 0.77716,0.167845 0.90394,0.372989 0.24641,0.398691 -2.32649,5.178619 -3.90885,7.261873 -1.49527,1.968596 -2.1615,1.670399 -4.31847,-1.932877 z"
       id="path60" />
    <path
       style="fill:#d38d5f;stroke-width:0.386575"
       d="m 247.5206,76.251975 c -1.16098,-1.34771 -4.53064,-7.180441 -4.333,-7.500227 0.11147,-0.180357 0.78586,-0.327923 1.49865,-0.327923 1.2629,0 1.39003,-0.158005 4.98029,-6.189749 l 3.68431,-6.189749 -3.30437,-5.890729 c -1.8174,-3.2399 -3.48125,-6.108177 -3.69743,-6.373947 -0.2898,-0.356286 -2.33539,-0.482225 -7.78729,-0.479434 l -7.39424,0.0038 -0.78153,1.362618 -0.78153,1.362618 -2.46257,-4.281515 c -2.14568,-3.730564 -2.4089,-4.399308 -2.0455,-5.196892 0.36763,-0.806853 0.75224,-0.941262 3.2441,-1.133729 1.55487,-0.120095 6.99313,-0.266433 12.08504,-0.325197 l 9.258,-0.106842 5.92387,10.050958 c 4.47835,7.598375 5.88149,10.287435 5.75024,11.020071 -0.26769,1.494185 -9.74599,18.348494 -11.3575,20.195883 -0.32457,0.372078 -0.88412,0.676506 -1.24344,0.676506 -0.35933,0 -0.91557,-0.304428 -1.2361,-0.676506 z"
       id="path62" />
    <path
       style="fill:#502d16;stroke-width:0.386575"
       d="M 141.91695,161.10724 C 140.25,158.47445 106.11042,99.561649 106.11042,99.317863 c 0,-0.16007 8.05377,-14.352512 17.89726,-31.538766 l 17.89727,-31.247733 h 36.11617 36.11617 l 5.75739,9.85767 c 17.08299,29.249106 29.75079,51.193287 29.91498,51.821151 0.2104,0.804576 -3.63502,7.794465 -22.6384,41.150205 l -12.77387,22.42137 -35.96423,0.0986 -35.96424,0.0986 z m 41.78819,-33.08188 c 6.51729,-3.38235 8.25107,-11.90367 3.61523,-17.76845 -2.21525,-2.8025 -4.72946,-3.94871 -8.66149,-3.94871 -4.35778,0 -5.8634,0.55124 -8.40561,3.07749 -2.55009,2.53407 -3.45231,4.75693 -3.44676,8.49199 0.006,4.26142 2.81545,8.63465 6.76129,10.52596 2.18755,1.04853 7.79098,0.83943 10.13734,-0.37828 z m -31.0124,-23.84097 c 2.31796,-1.13638 4.66515,-3.76601 5.61924,-6.295418 0.67305,-1.784354 0.80394,-2.809946 0.67756,-5.308981 -0.25024,-4.948087 -2.45324,-8.199026 -6.93386,-10.232203 -2.5158,-1.141596 -7.22528,-1.071935 -9.83997,0.145549 -7.43829,3.463514 -9.28024,13.471592 -3.51386,19.092333 0.89126,0.86876 2.40329,2.0322 3.36007,2.58542 1.59478,0.92214 2.04528,0.99611 5.41205,0.88863 2.68055,-0.0856 4.09012,-0.32201 5.21877,-0.87533 z m 63.21698,-0.26964 c 4.0979,-2.41917 5.97445,-5.737033 5.97188,-10.558632 -0.002,-2.600886 -0.17389,-3.446454 -1.08156,-5.301664 -1.29205,-2.64085 -3.87981,-5.038007 -6.34556,-5.878174 -2.29012,-0.780318 -6.42051,-0.780318 -8.71062,0 -2.46277,0.83915 -5.05266,3.237177 -6.35045,5.879987 -0.9223,1.878176 -1.08195,2.672291 -1.06583,5.301664 0.014,2.284834 0.22875,3.546971 0.82218,4.832191 1.16703,2.527528 3.3161,4.810178 5.63491,5.985188 1.85403,0.93949 2.34567,1.0164 5.71299,0.89366 3.14414,-0.11461 3.93773,-0.28385 5.41206,-1.15422 z"
       id="path64" />
    <path
       style="fill:#502d16;stroke-width:0.386575"
       d="m 220.5367,286.44589 c -4.35864,-0.12508 -7.9511,-0.2618 -7.98325,-0.3038 -0.18558,-0.24246 -3.27579,-5.54508 -16.97705,-29.13159 -17.08858,-29.41776 -16.1126,-27.77136 -16.46283,-27.77136 -0.14309,0 -0.94065,1.17423 -1.77235,2.60939 -27.32908,47.15826 -31.2763,53.86834 -31.94678,54.30791 -0.23826,0.1562 -9.40526,0.28667 -20.3711,0.28993 l -19.93788,0.006 -0.78248,-0.8698 c -0.81546,-0.90644 -2.86847,-4.40953 -26.110494,-44.5528 -38.3003,-66.1517 -46.6911,-80.80083 -46.6911,-81.5159 0,-0.72544 3.97842,-7.73061 32.825423,-57.79866 C 77.2651,79.258893 89.457398,58.015286 91.420802,54.507115 97.002872,44.533192 104.20584,32.11389 104.52166,31.918696 c 0.1576,-0.0974 6.46743,-0.300221 14.02186,-0.450717 10.21252,-0.203448 13.80596,-0.159316 14.01076,0.172071 0.1515,0.245134 0.86958,0.445699 1.59573,0.445699 1.08012,0 1.43092,-0.213967 1.92858,-1.176334 0.33457,-0.646983 1.07836,-1.367903 1.65287,-1.602044 0.7262,-0.295961 13.08253,-0.482265 40.54145,-0.611267 l 39.49688,-0.185556 0.90024,0.917806 c 0.49513,0.504793 1.16117,1.304669 1.48009,1.777501 l 0.57987,0.859696 7.92479,-0.365961 c 4.35864,-0.201278 11.26465,-0.370693 15.3467,-0.376476 l 7.4219,-0.01052 0.93631,1.25637 c 1.00091,1.343045 7.96369,13.022838 11.59492,19.450024 1.20888,2.139703 2.19797,4.229599 2.19797,4.644213 0,0.935271 1.75009,4.033934 30.22218,53.510759 12.66353,22.00579 24.20518,42.09481 25.6481,44.64226 l 2.62348,4.63172 -1.28645,2.32664 c -3.16913,5.73155 -61.68652,106.95395 -68.68137,118.80388 -1.79541,3.04159 -3.47089,5.59288 -3.72331,5.66955 -0.91536,0.27803 -22.68973,0.41967 -30.41851,0.19788 z m -74.77943,-11.011 c 1.72674,-2.97663 9.01821,-15.58865 16.20327,-28.02671 7.18505,-12.43806 13.66089,-23.51989 14.39074,-24.62629 2.43219,-3.68702 3.80976,-3.24077 7.0536,2.28497 1.28471,2.18845 9.07769,15.67345 17.31773,29.96668 l 14.9819,25.98769 16.27125,0.01 16.27126,0.01 7.7546,-13.43349 c 34.29624,-59.41234 47.6531,-82.58094 54.47692,-94.49478 l 7.90251,-13.79716 -3.94323,-6.88461 C 308.13819,141.4325 288.28808,107.03792 275.8834,85.627405 269.60101,74.783969 264.10218,65.261155 263.66378,64.465597 c -0.4384,-0.795558 -0.90591,-1.447903 -1.03891,-1.449657 -0.13301,-0.0017 -2.2998,3.606458 -4.8151,8.018248 -2.51529,4.411791 -4.96446,8.412845 -5.44259,8.891232 -0.47812,0.478387 -1.33073,0.869794 -1.89468,0.869794 -1.31473,0 -1.363,-0.117859 3.08736,7.538218 1.97745,3.401863 4.06946,7.092903 4.64889,8.202308 l 1.05352,2.017108 -0.94202,2.041932 c -0.51812,1.12307 -5.06227,9.2355 -10.09812,18.02763 l -9.1561,15.9857 2.35913,4.19722 2.35912,4.19722 -16.74591,29.00759 -16.74592,29.00759 -33.42047,-0.0954 -33.42048,-0.0954 -16.72545,-28.96728 -16.72545,-28.96729 0.71181,-1.18559 c 3.74003,-6.22946 5.11457,-8.86908 4.94871,-9.50334 -0.1045,-0.39958 -4.03897,-7.33251 -8.74329,-15.40649 -4.70431,-8.07399 -8.82729,-15.33574 -9.162172,-16.13723 -0.746427,-1.786448 -0.902301,-1.418135 4.909042,-11.5995 2.32038,-4.065268 4.21887,-7.587935 4.21887,-7.828149 0,-0.240218 -0.48526,-0.436757 -1.07836,-0.436757 -0.99618,0 -1.48967,-0.691494 -6.475139,-9.073161 -2.968226,-4.990238 -5.569614,-9.020659 -5.780858,-8.956491 -0.405866,0.123286 -4.242985,6.678951 -29.559486,50.501978 -24.835103,42.98972 -26.303136,45.55721 -26.303136,46.00245 0,0.23133 1.154334,2.45696 2.565187,4.94585 5.428735,9.57684 65.866912,114.37974 66.872022,115.95951 l 0.55589,0.87372 17.46903,-0.10057 17.46902,-0.10058 z m 53.65535,-113.32955 15.72728,-0.25628 17.96812,-31.44081 c 9.88247,-17.29245 17.96813,-31.553249 17.96813,-31.690665 0,-0.13742 -8.2043,-14.316004 -18.23178,-31.50797 L 214.6126,35.951501 h -36.60012 -36.60012 l -18.05675,31.553365 c -9.93121,17.354354 -18.00462,31.77144 -17.9409,32.037972 0.0637,0.266532 8.28208,14.509792 18.26305,31.651692 l 18.1472,31.16709 h 20.93019 c 11.5116,0 28.00747,-0.11533 36.65747,-0.25628 z M 108.62507,77.315057 c 0.75534,0 1.32584,-0.758782 3.44756,-4.585336 1.39834,-2.521932 2.54244,-4.696418 2.54244,-4.832191 0,-0.135769 -0.58201,-0.246855 -1.29336,-0.246855 -1.2717,0 -1.34967,-0.103019 -4.65719,-6.153283 l -3.36383,-6.153282 3.59411,-6.059839 3.59411,-6.05984 6.95835,0.273291 c 3.8271,0.150309 7.00468,0.383958 7.06129,0.519219 0.351,0.838664 0.82921,1.279193 1.164,1.072283 0.21281,-0.131526 1.36596,-1.968251 2.56256,-4.081612 l 2.17562,-3.842475 -0.62572,-1.312148 -0.62571,-1.312149 -12.4278,0.167214 c -6.83529,0.09197 -12.54943,0.278897 -12.69809,0.415399 -0.43084,0.395589 -11.906828,20.682801 -11.906828,21.048837 0,0.333578 3.164262,5.87613 9.163418,16.050724 2.40365,4.076602 3.41944,5.479813 3.84786,5.31541 0.32015,-0.12285 0.9894,-0.223367 1.48721,-0.223367 z M 256.53522,66.877524 c 3.36073,-5.846951 6.07318,-10.818524 6.02766,-11.047939 -0.0455,-0.229416 -2.86329,-5.155311 -6.26171,-10.946435 l -6.17896,-10.529316 -12.37666,0.261512 c -13.31714,0.281384 -13.0518,0.235698 -13.57976,2.338182 -0.2325,0.925895 4.81011,9.885263 5.45543,9.692841 0.21262,-0.0634 0.80959,-0.759892 1.32661,-1.547765 l 0.94002,-1.432495 6.98448,0.105093 6.98447,0.105093 3.18379,5.798629 c 1.75109,3.189246 3.18638,6.026108 3.18954,6.304138 0.003,0.27803 -1.5164,3.101912 -3.37679,6.275294 l -3.38253,5.769785 -1.83624,0.0066 c -1.00992,0.0035 -1.83623,0.07936 -1.83623,0.168342 0,0.327445 4.727,8.172426 5.32947,8.844838 0.42342,0.472593 1.05113,0.6583 1.95995,0.579863 1.31862,-0.113807 1.42115,-0.261742 7.44746,-10.746216 z"
       id="path66" />
    <path
       style="fill:#28170b;stroke-width:0.318967"
       d="m 220.5917,286.26956 c -4.47392,-0.11186 -7.84348,-0.32711 -8.01438,-0.51197 -0.16219,-0.17544 -3.29775,-5.48624 -6.96792,-11.80179 -22.00866,-37.87211 -26.10316,-44.81489 -26.42953,-44.81489 -0.4243,0 -1.79513,2.29108 -15.45866,25.83634 -15.45916,26.63951 -17.88424,30.6447 -18.7555,30.97596 -0.42858,0.16294 -9.28485,0.25205 -20.42573,0.20551 l -19.66909,-0.0822 -1.47602,-2.23277 C 100.33667,279.21766 34.253631,164.87091 32.22395,160.69321 l -0.644556,-1.32669 1.374525,-2.51171 C 35.149291,152.84315 44.577082,136.36453 62.129163,105.86009 71.113048,90.246647 83.633723,68.429292 89.952881,57.377079 96.272042,46.324866 102.14194,36.111908 102.99709,34.681617 l 1.55484,-2.600529 4.46554,-0.199431 c 9.30348,-0.415493 22.57439,-0.366483 23.85973,0.08811 1.6156,0.571404 2.5815,0.276748 3.39207,-1.034786 0.36891,-0.596899 0.91902,-1.19385 1.22247,-1.326558 0.925,-0.40452 22.02301,-0.720655 51.89833,-0.77765 l 28.38094,-0.05414 1.14637,1.228961 c 0.63049,0.675929 1.27961,1.451056 1.44248,1.722505 0.25636,0.427277 0.93852,0.462511 5.08063,0.262422 2.63148,-0.127117 9.5338,-0.3367 15.33848,-0.465741 l 10.55397,-0.234619 2.39279,3.79341 c 3.33662,5.289715 10.24139,17.15372 11.21113,19.263318 0.44353,0.964876 1.29817,2.830834 1.8992,4.146574 1.2387,2.711699 4.08981,7.724211 34.83414,61.241697 12.14409,21.13955 22.23649,38.7345 22.42756,39.09988 0.2971,0.56815 -0.0715,1.39938 -2.54599,5.74141 -8.15649,14.31235 -53.70865,93.11731 -64.73339,111.98837 -2.17069,3.71559 -4.41024,7.41162 -4.97678,8.21341 l -1.03007,1.45781 h -9.85004 c -5.41752,0 -10.48009,0.051 -11.25017,0.11326 -0.77007,0.0623 -4.8739,0.0264 -9.11962,-0.0797 z m -63.36868,-30.33541 c 17.26583,-29.83743 19.58307,-33.73547 20.64375,-34.72669 1.06331,-0.99368 2.08772,-0.73682 3.33251,0.83562 0.88898,1.12297 9.45104,15.8051 26.87632,46.08724 l 7.47691,12.99359 16.42681,6.3e-4 16.42681,6.4e-4 19.91838,-34.5245 c 34.62089,-60.00834 50.09492,-86.97011 50.09492,-87.28483 0,-0.66338 -55.22659,-96.116794 -55.69775,-96.26778 -0.19632,-0.06291 -2.18892,3.013206 -4.42801,6.835811 -5.78904,9.883157 -6.03023,10.22382 -7.52312,10.625811 -0.68642,0.184835 -1.24804,0.510121 -1.24804,0.722857 0,0.212735 1.8095,3.544398 4.02111,7.403691 2.2116,3.859295 4.37205,7.708563 4.80099,8.553931 l 0.77989,1.537026 -1.73475,3.247483 c -0.95412,1.78611 -5.49509,9.83802 -10.09106,17.89312 -7.15706,12.5438 -8.31093,14.74519 -8.04022,15.33934 0.17384,0.38154 1.19078,2.23445 2.25987,4.11758 1.06909,1.88313 1.9438,3.53449 1.9438,3.66969 0,0.13521 -7.45103,13.15028 -16.55784,28.92238 l -16.55784,28.67656 h -33.41907 -33.41908 l -16.67036,-28.86653 c -15.45611,-26.76392 -16.63827,-28.91566 -16.22975,-29.54099 1.19444,-1.82832 4.6629,-8.09882 4.97498,-8.99407 0.34234,-0.98204 0.10536,-1.45165 -6.75072,-13.3773 -10.761128,-18.7182 -11.138329,-19.41508 -11.138329,-20.577805 0,-0.725794 0.925337,-2.679414 3.059129,-6.458601 4.21905,-7.47239 6.19092,-11.154854 6.19092,-11.561511 0,-0.189578 -0.43173,-0.439511 -0.95939,-0.555405 -1.1153,-0.244964 -1.6169,-0.919244 -5.58843,-7.512369 -3.831337,-6.360391 -6.543461,-10.508732 -6.870454,-10.508732 -0.392537,0 -4.710399,7.340507 -26.361209,44.814893 -24.581619,42.54719 -29.248534,50.73999 -29.372564,51.56377 -0.08465,0.56225 0.280027,1.58332 1.082259,3.03019 4.768892,8.601 67.766558,117.8006 68.471358,118.68765 0.25078,0.31562 4.06549,0.38377 17.85354,0.31896 l 17.53462,-0.0824 z m 45.73028,-93.74198 12.28024,-0.19385 13.30586,-23.28461 c 17.48206,-30.59274 22.57795,-39.61965 22.57795,-39.994819 0,-0.400307 -12.27423,-21.629755 -33.03125,-57.130688 l -3.2637,-5.581926 -36.79462,-0.0747 -36.79463,-0.0747 -13.78666,24.156719 c -15.51485,27.184824 -22.09715,38.937747 -22.09715,39.455246 0,0.193613 1.81398,3.505038 4.03107,7.358718 4.30279,7.47901 28.20266,48.61677 30.80177,53.01772 l 1.55411,2.63148 24.46839,-0.0454 c 13.45761,-0.0249 29.99449,-0.13261 36.74862,-0.23922 z M 109.87578,76.678603 c 1.14783,-1.417513 4.77551,-8.339761 4.60433,-8.785859 -0.1035,-0.269722 -0.59123,-0.468199 -1.15054,-0.468199 -0.82402,0 -1.13112,-0.253282 -2.03038,-1.674578 -1.96662,-3.108284 -5.67667,-10.133192 -5.57365,-10.5536 0.0562,-0.229494 1.60239,-2.954609 3.4359,-6.055812 l 3.33364,-5.638549 3.0457,0.02043 c 1.67514,0.01123 4.73859,0.134521 6.80768,0.273969 3.25729,0.21953 3.84822,0.346111 4.40481,0.943548 0.35356,0.379502 0.77891,0.605908 0.94522,0.503123 0.47003,-0.290495 4.76473,-7.670557 4.74969,-8.161931 -0.007,-0.240312 -0.27415,-0.926485 -0.59288,-1.52483 l -0.57952,-1.087898 -9.69381,0.08654 c -5.33159,0.0476 -11.05498,0.178313 -12.71865,0.29048 l -3.02486,0.20394 -2.03468,3.508639 c -1.11908,1.929752 -3.803848,6.65374 -5.966145,10.497752 l -3.931453,6.989111 0.656202,1.304036 c 1.191671,2.368146 10.090206,17.553936 11.116016,18.970019 0.96551,1.332846 1.05906,1.381505 2.32872,1.211208 0.80111,-0.107454 1.53807,-0.443285 1.86866,-0.851537 z m 141.02891,-0.08375 c 0.93061,-1.242052 5.09842,-8.366041 8.98363,-15.355613 2.49988,-4.497352 2.78151,-5.164524 2.49758,-5.916744 -0.17601,-0.466302 -2.96286,-5.394705 -6.19299,-10.952006 l -5.87298,-10.104183 -3.50864,0.0045 c -8.02923,0.01033 -20.76036,0.572609 -21.59708,0.953843 -1.4491,0.660254 -1.43283,1.799865 0.0689,4.824706 1.71963,3.46383 3.78977,6.642307 4.32614,6.642307 0.23411,0 0.87006,-0.645909 1.41321,-1.435353 L 232.01,43.820958 h 4.56158 c 2.50887,0 5.63021,0.09033 6.93632,0.20074 l 2.37474,0.200739 0.89155,1.633322 c 4.5428,8.322413 5.34018,10.052865 4.97112,10.788253 -0.20233,0.403178 -1.68232,3.062464 -3.28886,5.909525 -2.87666,5.09791 -2.93793,5.177147 -4.03737,5.220954 -0.61401,0.02446 -1.52198,0.135153 -2.0177,0.245969 l -0.90132,0.201488 2.29961,3.827606 c 3.4565,5.753221 3.30518,5.581926 4.93095,5.581926 1.20459,0 1.50457,-0.143038 2.17411,-1.036643 z"
       id="path90" />
    <path
       sodipodi:type="star"
       style="fill:#28170b;stroke-width:1.16464"
       id="path20"
       sodipodi:sides="6"
       sodipodi:cx="178.78416"
       sodipodi:cy="129.04065"
       sodipodi:r1="36.768967"
       sodipodi:r2="31.842859"
       sodipodi:arg1="2.0886893"
       sodipodi:arg2="2.6122881"
       inkscape:flatsided="true"
       inkscape:rounded="0"
       inkscape:randomized="0"
       d="m 160.58167,160.98789 -18.56587,-31.73745 18.20249,-31.947234 36.76837,-0.209795 18.56587,31.737439 -18.20249,31.94724 z" />
    <path
       style="fill:#d38d5f;stroke-width:0.318967"
       d="m 151.58903,145.35891 c -4.994,-8.53766 -9.12553,-15.70982 -9.18117,-15.93812 -0.0556,-0.22831 3.95037,-7.5247 8.90223,-16.21421 l 9.00339,-15.799115 h 14.89095 c 8.19002,0 16.39371,-0.09195 18.23042,-0.204328 l 3.33948,-0.204327 9.20302,15.72521 c 5.06166,8.64886 9.20303,15.89629 9.20303,16.10539 0,0.20911 -4.0053,7.4123 -8.90066,16.0071 l -8.90066,15.62692 -9.54508,0.20925 c -5.24979,0.11509 -13.50954,0.20926 -18.355,0.20926 h -8.80993 z"
       id="path26" />
    <ellipse
       style="fill:#000000;stroke-width:0.546296"
       id="path28"
       cx="178.14317"
       cy="126.81898"
       rx="9.4095316"
       ry="9.7580338" />
  </g>
</svg>
